<svg width="16" height="16" viewBox="0 0 16 16" fill="none" xmlns="http://www.w3.org/2000/svg">
<circle cx="8" cy="8" r="8" fill="#FFD100"/>
<path d="M6.65766 8.151C6.65766 7.645 6.544 7.24167 6.31666 6.941C6.08933 6.633 5.752 6.479 5.30466 6.479C5.158 6.479 5.02233 6.48633 4.89766 6.501C4.773 6.50833 4.67033 6.51933 4.58966 6.534V9.493C4.69233 9.559 4.82433 9.614 4.98566 9.658C5.15433 9.702 5.323 9.724 5.49166 9.724C6.269 9.724 6.65766 9.19967 6.65766 8.151ZM8.32966 8.107C8.32966 8.55433 8.27466 8.96133 8.16466 9.328C8.05466 9.69467 7.89333 10.01 7.68066 10.274C7.468 10.538 7.204 10.7433 6.88866 10.89C6.57333 11.0367 6.21033 11.11 5.79966 11.11C5.57233 11.11 5.35966 11.088 5.16166 11.044C4.96366 11 4.773 10.9377 4.58966 10.857V13.035H2.95066V5.412C3.09733 5.368 3.266 5.32767 3.45666 5.291C3.64733 5.247 3.84533 5.21033 4.05066 5.181C4.26333 5.15167 4.476 5.12967 4.68866 5.115C4.90866 5.093 5.11766 5.082 5.31566 5.082C5.79233 5.082 6.21766 5.15533 6.59166 5.302C6.96566 5.44133 7.281 5.643 7.53766 5.907C7.79433 6.16367 7.98866 6.479 8.12066 6.853C8.26 7.227 8.32966 7.645 8.32966 8.107Z" fill="black"/>
<path d="M11.4577 2.464C11.7657 2.464 12.048 2.497 12.3047 2.563C12.5614 2.62167 12.7594 2.68033 12.8987 2.739L12.5797 4.048C12.433 3.982 12.2717 3.93433 12.0957 3.905C11.927 3.86833 11.7694 3.85 11.6227 3.85C11.4247 3.85 11.256 3.87933 11.1167 3.938C10.9847 3.98933 10.8784 4.06267 10.7977 4.158C10.7244 4.25333 10.6694 4.367 10.6327 4.499C10.6034 4.631 10.5887 4.774 10.5887 4.928V5.214H12.6127V6.578H10.5887V11H8.94969V4.906C8.94969 4.158 9.15869 3.564 9.57669 3.124C10.002 2.684 10.629 2.464 11.4577 2.464Z" fill="black"/>
</svg>
