<svg id="visual" viewBox="0 0 960 540" width="960" height="540" xmlns="http://www.w3.org/2000/svg" xmlns:xlink="http://www.w3.org/1999/xlink" version="1.1"><path d="M0 152L44 152L44 125L87 125L87 201L131 201L131 287L175 287L175 185L218 185L218 163L262 163L262 163L305 163L305 330L349 330L349 185L393 185L393 233L436 233L436 168L480 168L480 152L524 152L524 233L567 233L567 201L611 201L611 222L655 222L655 109L698 109L698 271L742 271L742 206L785 206L785 190L829 190L829 244L873 244L873 255L916 255L916 114L960 114L960 239L960 0L960 0L916 0L916 0L873 0L873 0L829 0L829 0L785 0L785 0L742 0L742 0L698 0L698 0L655 0L655 0L611 0L611 0L567 0L567 0L524 0L524 0L480 0L480 0L436 0L436 0L393 0L393 0L349 0L349 0L305 0L305 0L262 0L262 0L218 0L218 0L175 0L175 0L131 0L131 0L87 0L87 0L44 0L44 0L0 0Z" fill="#ffd100"></path><path d="M0 422L44 422L44 438L87 438L87 352L131 352L131 411L175 411L175 401L218 401L218 455L262 455L262 379L305 379L305 449L349 449L349 401L393 401L393 411L436 411L436 357L480 357L480 476L524 476L524 357L567 357L567 455L611 455L611 460L655 460L655 406L698 406L698 422L742 422L742 379L785 379L785 422L829 422L829 476L873 476L873 471L916 471L916 471L960 471L960 379L960 237L960 112L916 112L916 253L873 253L873 242L829 242L829 188L785 188L785 204L742 204L742 269L698 269L698 107L655 107L655 220L611 220L611 199L567 199L567 231L524 231L524 150L480 150L480 166L436 166L436 231L393 231L393 183L349 183L349 328L305 328L305 161L262 161L262 161L218 161L218 183L175 183L175 285L131 285L131 199L87 199L87 123L44 123L44 150L0 150Z" fill="#00ccaa"></path><path d="M0 541L44 541L44 541L87 541L87 541L131 541L131 541L175 541L175 541L218 541L218 541L262 541L262 541L305 541L305 541L349 541L349 541L393 541L393 541L436 541L436 541L480 541L480 541L524 541L524 541L567 541L567 541L611 541L611 541L655 541L655 541L698 541L698 541L742 541L742 541L785 541L785 541L829 541L829 541L873 541L873 541L916 541L916 541L960 541L960 541L960 377L960 469L916 469L916 469L873 469L873 474L829 474L829 420L785 420L785 377L742 377L742 420L698 420L698 404L655 404L655 458L611 458L611 453L567 453L567 355L524 355L524 474L480 474L480 355L436 355L436 409L393 409L393 399L349 399L349 447L305 447L305 377L262 377L262 453L218 453L218 399L175 399L175 409L131 409L131 350L87 350L87 436L44 436L44 420L0 420Z" fill="#0090e3"></path></svg>