<?xml version="1.0" encoding="UTF-8"?> <svg xmlns="http://www.w3.org/2000/svg" width="376" height="345" viewBox="0 0 376 345" fill="none"> <path d="M339.637 210.267C340.658 207.725 341.535 203.88 341.734 199.079M89.1425 125.192C61.0448 124.94 4.95884 116.068 5.39714 82.5941C5.94502 40.7516 33.9592 35.8582 58.4404 48.9171C82.9217 61.976 133.637 85.5157 170.161 95.8293C199.38 104.08 236.41 114.537 251.272 118.733C246.211 109.451 238.263 84.6382 246.96 59.6423C257.831 28.3975 290.941 -14.4934 325.902 15.8653C360.863 46.2239 317.128 68.7011 304.605 91.285C292.082 113.869 299.013 121.972 324.498 153.24C338.849 170.847 342.206 187.667 341.734 199.079M167.117 184.598C178.492 177.567 200.193 174.476 188.474 150.68C179.46 132.374 142.886 99.9166 110.7 112.329C78.5141 124.742 80.0626 144.651 102.071 168.279M173.366 235.018C184.092 229.681 200.154 214.516 178.596 196.546C151.648 174.084 136.034 160.456 105.269 173.279C80.6565 183.538 85.2806 212.022 90.6692 224.982M116.561 278.388C121.541 275.868 134.307 272.132 145.535 277.351C159.57 283.875 181.245 286.922 185.219 258.339C189.192 229.756 136.335 213.805 117.394 219.213C98.454 224.62 62.8504 227.37 81.689 276.735C100.528 326.101 199.787 350.032 235.491 336.043C251.093 329.93 265.141 323.085 277.463 314.604M316.131 271.746C306.352 290.036 293.341 303.677 277.463 314.604M242.566 149.565C229.567 164.162 217.849 191.753 228.876 210.744C248.269 244.144 277.051 237.835 283.519 234.881M341.734 199.079C357.821 201.402 384.352 220.23 361.779 276.954C333.562 347.859 287.882 335.984 277.463 314.604" stroke="#0E0E12" stroke-width="10" stroke-linecap="round" stroke-linejoin="round"></path> </svg> 