<svg width="70" height="16" viewBox="0 0 70 16" fill="none" xmlns="http://www.w3.org/2000/svg">
<path d="M5.56669 8.856C5.56669 8.12 5.40135 7.53333 5.07069 7.096C4.74002 6.648 4.24935 6.424 3.59869 6.424C3.38535 6.424 3.18802 6.43467 3.00669 6.456C2.82535 6.46667 2.67602 6.48267 2.55869 6.504V10.808C2.70802 10.904 2.90002 10.984 3.13469 11.048C3.38002 11.112 3.62535 11.144 3.87069 11.144C5.00135 11.144 5.56669 10.3813 5.56669 8.856ZM7.99869 8.792C7.99869 9.44267 7.91869 10.0347 7.75869 10.568C7.59869 11.1013 7.36402 11.56 7.05469 11.944C6.74535 12.328 6.36135 12.6267 5.90269 12.84C5.44402 13.0533 4.91602 13.16 4.31869 13.16C3.98802 13.16 3.67869 13.128 3.39069 13.064C3.10269 13 2.82535 12.9093 2.55869 12.792V15.96H0.174688V4.872C0.388021 4.808 0.633354 4.74933 0.910688 4.696C1.18802 4.632 1.47602 4.57867 1.77469 4.536C2.08402 4.49333 2.39335 4.46133 2.70269 4.44C3.02269 4.408 3.32669 4.392 3.61469 4.392C4.30802 4.392 4.92669 4.49867 5.47069 4.712C6.01469 4.91467 6.47335 5.208 6.84669 5.592C7.22002 5.96533 7.50269 6.424 7.69469 6.968C7.89735 7.512 7.99869 8.12 7.99869 8.792ZM13.0469 11.336C13.2816 11.336 13.5056 11.3307 13.7189 11.32C13.9323 11.3093 14.1029 11.2933 14.2309 11.272V9.464C14.1349 9.44267 13.9909 9.42133 13.7989 9.4C13.6069 9.37867 13.4309 9.368 13.2709 9.368C13.0469 9.368 12.8336 9.384 12.6309 9.416C12.4389 9.43733 12.2683 9.48533 12.1189 9.56C11.9696 9.63467 11.8523 9.736 11.7669 9.864C11.6816 9.992 11.6389 10.152 11.6389 10.344C11.6389 10.7173 11.7616 10.9787 12.0069 11.128C12.2629 11.2667 12.6096 11.336 13.0469 11.336ZM12.8549 4.36C13.5589 4.36 14.1456 4.44 14.6149 4.6C15.0843 4.76 15.4576 4.98933 15.7349 5.288C16.0229 5.58667 16.2256 5.94933 16.3429 6.376C16.4603 6.80267 16.5189 7.27733 16.5189 7.8V12.76C16.1776 12.8347 15.7029 12.92 15.0949 13.016C14.4869 13.1227 13.7509 13.176 12.8869 13.176C12.3429 13.176 11.8469 13.128 11.3989 13.032C10.9616 12.936 10.5829 12.7813 10.2629 12.568C9.94294 12.344 9.6976 12.056 9.52694 11.704C9.35627 11.352 9.27094 10.92 9.27094 10.408C9.27094 9.91733 9.36694 9.50133 9.55894 9.16C9.7616 8.81867 10.0283 8.54667 10.3589 8.344C10.6896 8.14133 11.0683 7.99733 11.4949 7.912C11.9216 7.816 12.3643 7.768 12.8229 7.768C13.1323 7.768 13.4043 7.784 13.6389 7.816C13.8843 7.83733 14.0816 7.86933 14.2309 7.912V7.688C14.2309 7.28267 14.1083 6.95733 13.8629 6.712C13.6176 6.46667 13.1909 6.344 12.5829 6.344C12.1776 6.344 11.7776 6.376 11.3829 6.44C10.9883 6.49333 10.6469 6.57333 10.3589 6.68L10.0549 4.76C10.1936 4.71733 10.3643 4.67467 10.5669 4.632C10.7803 4.57867 11.0096 4.536 11.2549 4.504C11.5003 4.46133 11.7563 4.42933 12.0229 4.408C12.3003 4.376 12.5776 4.36 12.8549 4.36ZM22.0347 13.16C21.3414 13.1493 20.776 13.0747 20.3387 12.936C19.912 12.7973 19.5707 12.6053 19.3147 12.36C19.0694 12.104 18.8987 11.8 18.8027 11.448C18.7174 11.0853 18.6747 10.68 18.6747 10.232V0.967999L21.0587 0.584V9.752C21.0587 9.96533 21.0747 10.1573 21.1067 10.328C21.1387 10.4987 21.1974 10.6427 21.2827 10.76C21.3787 10.8773 21.512 10.9733 21.6827 11.048C21.8534 11.1227 22.0827 11.1707 22.3707 11.192L22.0347 13.16ZM31.2289 0.584C31.6769 0.584 32.0876 0.632 32.4609 0.728C32.8343 0.813333 33.1223 0.898666 33.3249 0.983999L32.8609 2.888C32.6476 2.792 32.4129 2.72267 32.1569 2.68C31.9116 2.62667 31.6823 2.6 31.4689 2.6C31.1809 2.6 30.9356 2.64267 30.7329 2.728C30.5409 2.80267 30.3863 2.90933 30.2689 3.048C30.1623 3.18667 30.0823 3.352 30.0289 3.544C29.9863 3.736 29.9649 3.944 29.9649 4.168V4.584H32.9089V6.568H29.9649V13H27.5809V4.136C27.5809 3.048 27.8849 2.184 28.4929 1.544C29.1116 0.904 30.0236 0.584 31.2289 0.584ZM42.0779 8.776C42.0779 9.43733 41.9819 10.0453 41.7899 10.6C41.5979 11.144 41.3206 11.6133 40.9579 12.008C40.5953 12.392 40.1579 12.6907 39.6459 12.904C39.1446 13.1173 38.5793 13.224 37.9499 13.224C37.3313 13.224 36.7659 13.1173 36.2539 12.904C35.7526 12.6907 35.3206 12.392 34.9579 12.008C34.5953 11.6133 34.3126 11.144 34.1099 10.6C33.9073 10.0453 33.8059 9.43733 33.8059 8.776C33.8059 8.11467 33.9073 7.512 34.1099 6.968C34.3233 6.424 34.6113 5.96 34.9739 5.576C35.3473 5.192 35.7846 4.89333 36.2859 4.68C36.7979 4.46667 37.3526 4.36 37.9499 4.36C38.5579 4.36 39.1126 4.46667 39.6139 4.68C40.1259 4.89333 40.5633 5.192 40.9259 5.576C41.2886 5.96 41.5713 6.424 41.7739 6.968C41.9766 7.512 42.0779 8.11467 42.0779 8.776ZM39.6459 8.776C39.6459 8.04 39.4966 7.464 39.1979 7.048C38.9099 6.62133 38.4939 6.408 37.9499 6.408C37.4059 6.408 36.9846 6.62133 36.6859 7.048C36.3873 7.464 36.2379 8.04 36.2379 8.776C36.2379 9.512 36.3873 10.0987 36.6859 10.536C36.9846 10.9627 37.4059 11.176 37.9499 11.176C38.4939 11.176 38.9099 10.9627 39.1979 10.536C39.4966 10.0987 39.6459 9.512 39.6459 8.776ZM51.7967 8.776C51.7967 9.43733 51.7007 10.0453 51.5087 10.6C51.3167 11.144 51.0394 11.6133 50.6767 12.008C50.314 12.392 49.8767 12.6907 49.3647 12.904C48.8634 13.1173 48.298 13.224 47.6687 13.224C47.05 13.224 46.4847 13.1173 45.9727 12.904C45.4714 12.6907 45.0394 12.392 44.6767 12.008C44.314 11.6133 44.0314 11.144 43.8287 10.6C43.626 10.0453 43.5247 9.43733 43.5247 8.776C43.5247 8.11467 43.626 7.512 43.8287 6.968C44.042 6.424 44.33 5.96 44.6927 5.576C45.066 5.192 45.5034 4.89333 46.0047 4.68C46.5167 4.46667 47.0714 4.36 47.6687 4.36C48.2767 4.36 48.8314 4.46667 49.3327 4.68C49.8447 4.89333 50.282 5.192 50.6447 5.576C51.0074 5.96 51.29 6.424 51.4927 6.968C51.6954 7.512 51.7967 8.11467 51.7967 8.776ZM49.3647 8.776C49.3647 8.04 49.2154 7.464 48.9167 7.048C48.6287 6.62133 48.2127 6.408 47.6687 6.408C47.1247 6.408 46.7034 6.62133 46.4047 7.048C46.106 7.464 45.9567 8.04 45.9567 8.776C45.9567 9.512 46.106 10.0987 46.4047 10.536C46.7034 10.9627 47.1247 11.176 47.6687 11.176C48.2127 11.176 48.6287 10.9627 48.9167 10.536C49.2154 10.0987 49.3647 9.512 49.3647 8.776ZM55.6754 8.728C55.6754 9.464 55.8408 10.056 56.1714 10.504C56.5021 10.952 56.9928 11.176 57.6434 11.176C57.8568 11.176 58.0541 11.1707 58.2354 11.16C58.4168 11.1387 58.5661 11.1173 58.6834 11.096V6.76C58.5341 6.664 58.3368 6.584 58.0914 6.52C57.8568 6.456 57.6168 6.424 57.3714 6.424C56.2408 6.424 55.6754 7.192 55.6754 8.728ZM61.0674 12.728C60.8541 12.792 60.6088 12.856 60.3314 12.92C60.0541 12.9733 59.7608 13.0213 59.4514 13.064C59.1528 13.1067 58.8434 13.1387 58.5234 13.16C58.2141 13.192 57.9154 13.208 57.6274 13.208C56.9341 13.208 56.3154 13.1067 55.7714 12.904C55.2274 12.7013 54.7688 12.4133 54.3954 12.04C54.0221 11.656 53.7341 11.1973 53.5314 10.664C53.3394 10.12 53.2434 9.512 53.2434 8.84C53.2434 8.15733 53.3288 7.544 53.4994 7C53.6701 6.44533 53.9154 5.976 54.2354 5.592C54.5554 5.208 54.9448 4.91467 55.4034 4.712C55.8728 4.50933 56.4061 4.408 57.0034 4.408C57.3341 4.408 57.6274 4.44 57.8834 4.504C58.1501 4.568 58.4168 4.65867 58.6834 4.776V0.967999L61.0674 0.584V12.728ZM65.7157 11.288C66.153 11.288 66.4624 11.2453 66.6437 11.16C66.825 11.0747 66.9157 10.9093 66.9157 10.664C66.9157 10.472 66.7984 10.3067 66.5637 10.168C66.329 10.0187 65.9717 9.85333 65.4917 9.672C65.1184 9.53333 64.777 9.38933 64.4677 9.24C64.169 9.09067 63.913 8.91467 63.6997 8.712C63.4864 8.49867 63.321 8.248 63.2037 7.96C63.0864 7.672 63.0277 7.32533 63.0277 6.92C63.0277 6.13067 63.321 5.50667 63.9077 5.048C64.4944 4.58933 65.2997 4.36 66.3237 4.36C66.8357 4.36 67.3264 4.408 67.7957 4.504C68.265 4.58933 68.6384 4.68533 68.9157 4.792L68.4997 6.648C68.2224 6.552 67.9184 6.46667 67.5877 6.392C67.2677 6.31733 66.905 6.28 66.4997 6.28C65.753 6.28 65.3797 6.488 65.3797 6.904C65.3797 7 65.3957 7.08533 65.4277 7.16C65.4597 7.23467 65.5237 7.30933 65.6197 7.384C65.7157 7.448 65.8437 7.52267 66.0037 7.608C66.1744 7.68267 66.3877 7.768 66.6437 7.864C67.1664 8.056 67.5984 8.248 67.9397 8.44C68.281 8.62133 68.5477 8.824 68.7397 9.048C68.9424 9.26133 69.081 9.50133 69.1557 9.768C69.241 10.0347 69.2837 10.344 69.2837 10.696C69.2837 11.528 68.969 12.1573 68.3397 12.584C67.721 13.0107 66.841 13.224 65.6997 13.224C64.953 13.224 64.329 13.16 63.8277 13.032C63.337 12.904 62.9957 12.7973 62.8037 12.712L63.2037 10.776C63.609 10.936 64.025 11.064 64.4517 11.16C64.8784 11.2453 65.2997 11.288 65.7157 11.288Z" fill="black"/>
</svg>
