<svg width="126" height="94" viewBox="0 0 126 94" fill="none" xmlns="http://www.w3.org/2000/svg">
<path d="M46.6923 25.568C46.6923 23.36 46.1963 21.6 45.2043 20.288C44.2123 18.944 42.7403 18.272 40.7883 18.272C40.1483 18.272 39.5563 18.304 39.0123 18.368C38.4683 18.4 38.0203 18.448 37.6683 18.512V31.424C38.1163 31.712 38.6923 31.952 39.3963 32.144C40.1323 32.336 40.8683 32.432 41.6043 32.432C44.9963 32.432 46.6923 30.144 46.6923 25.568ZM53.9883 25.376C53.9883 27.328 53.7483 29.104 53.2683 30.704C52.7883 32.304 52.0843 33.68 51.1562 34.832C50.2283 35.984 49.0763 36.88 47.7003 37.52C46.3243 38.16 44.7403 38.48 42.9483 38.48C41.9563 38.48 41.0283 38.384 40.1643 38.192C39.3003 38 38.4683 37.728 37.6683 37.376V46.88H30.5163V13.616C31.1563 13.424 31.8923 13.248 32.7243 13.088C33.5563 12.896 34.4203 12.736 35.3163 12.608C36.2443 12.48 37.1723 12.384 38.1003 12.32C39.0603 12.224 39.9723 12.176 40.8363 12.176C42.9163 12.176 44.7723 12.496 46.4043 13.136C48.0363 13.744 49.4123 14.624 50.5323 15.776C51.6523 16.896 52.5003 18.272 53.0763 19.904C53.6843 21.536 53.9883 23.36 53.9883 25.376ZM69.133 33.008C69.837 33.008 70.509 32.992 71.149 32.96C71.789 32.928 72.301 32.88 72.685 32.816V27.392C72.397 27.328 71.965 27.264 71.389 27.2C70.813 27.136 70.285 27.104 69.805 27.104C69.133 27.104 68.493 27.152 67.885 27.248C67.309 27.312 66.797 27.456 66.349 27.68C65.901 27.904 65.549 28.208 65.293 28.592C65.037 28.976 64.909 29.456 64.909 30.032C64.909 31.152 65.277 31.936 66.013 32.384C66.781 32.8 67.821 33.008 69.133 33.008ZM68.557 12.08C70.669 12.08 72.429 12.32 73.837 12.8C75.245 13.28 76.365 13.968 77.197 14.864C78.061 15.76 78.669 16.848 79.021 18.128C79.373 19.408 79.549 20.832 79.549 22.4V37.28C78.525 37.504 77.101 37.76 75.277 38.048C73.453 38.368 71.245 38.528 68.653 38.528C67.021 38.528 65.533 38.384 64.189 38.096C62.877 37.808 61.741 37.344 60.781 36.704C59.821 36.032 59.085 35.168 58.573 34.112C58.061 33.056 57.805 31.76 57.805 30.224C57.805 28.752 58.093 27.504 58.669 26.48C59.277 25.456 60.077 24.64 61.069 24.032C62.061 23.424 63.197 22.992 64.477 22.736C65.757 22.448 67.085 22.304 68.461 22.304C69.389 22.304 70.205 22.352 70.909 22.448C71.645 22.512 72.237 22.608 72.685 22.736V22.064C72.685 20.848 72.317 19.872 71.581 19.136C70.845 18.4 69.565 18.032 67.741 18.032C66.525 18.032 65.325 18.128 64.141 18.32C62.957 18.48 61.933 18.72 61.069 19.04L60.157 13.28C60.573 13.152 61.085 13.024 61.693 12.896C62.333 12.736 63.021 12.608 63.757 12.512C64.493 12.384 65.261 12.288 66.061 12.224C66.893 12.128 67.725 12.08 68.557 12.08ZM96.0963 38.48C94.0163 38.448 92.3203 38.224 91.0083 37.808C89.7283 37.392 88.7043 36.816 87.9363 36.08C87.2003 35.312 86.6883 34.4 86.4003 33.344C86.1443 32.256 86.0163 31.04 86.0163 29.696V1.904L93.1683 0.751999V28.256C93.1683 28.896 93.2163 29.472 93.3123 29.984C93.4083 30.496 93.5843 30.928 93.8403 31.28C94.1283 31.632 94.5283 31.92 95.0403 32.144C95.5523 32.368 96.2403 32.512 97.1043 32.576L96.0963 38.48ZM11.5774 55.752C12.9214 55.752 14.1534 55.896 15.2734 56.184C16.3934 56.44 17.2574 56.696 17.8654 56.952L16.4734 62.664C15.8334 62.376 15.1294 62.168 14.3614 62.04C13.6254 61.88 12.9374 61.8 12.2974 61.8C11.4334 61.8 10.6974 61.928 10.0894 62.184C9.51344 62.408 9.04944 62.728 8.69744 63.144C8.37744 63.56 8.13744 64.056 7.97744 64.632C7.84944 65.208 7.78544 65.832 7.78544 66.504V67.752H16.6174V73.704H7.78544V93H0.633438V66.408C0.633438 63.144 1.54544 60.552 3.36944 58.632C5.22544 56.712 7.96144 55.752 11.5774 55.752ZM44.1244 80.328C44.1244 82.312 43.8364 84.136 43.2604 85.8C42.6844 87.432 41.8524 88.84 40.7644 90.024C39.6764 91.176 38.3644 92.072 36.8284 92.712C35.3244 93.352 33.6284 93.672 31.7404 93.672C29.8844 93.672 28.1884 93.352 26.6524 92.712C25.1484 92.072 23.8524 91.176 22.7644 90.024C21.6764 88.84 20.8284 87.432 20.2204 85.8C19.6124 84.136 19.3084 82.312 19.3084 80.328C19.3084 78.344 19.6124 76.536 20.2204 74.904C20.8604 73.272 21.7244 71.88 22.8124 70.728C23.9324 69.576 25.2444 68.68 26.7484 68.04C28.2844 67.4 29.9484 67.08 31.7404 67.08C33.5644 67.08 35.2284 67.4 36.7324 68.04C38.2684 68.68 39.5804 69.576 40.6684 70.728C41.7564 71.88 42.6044 73.272 43.2124 74.904C43.8204 76.536 44.1244 78.344 44.1244 80.328ZM36.8284 80.328C36.8284 78.12 36.3804 76.392 35.4844 75.144C34.6204 73.864 33.3724 73.224 31.7404 73.224C30.1084 73.224 28.8444 73.864 27.9484 75.144C27.0524 76.392 26.6044 78.12 26.6044 80.328C26.6044 82.536 27.0524 84.296 27.9484 85.608C28.8444 86.888 30.1084 87.528 31.7404 87.528C33.3724 87.528 34.6204 86.888 35.4844 85.608C36.3804 84.296 36.8284 82.536 36.8284 80.328ZM73.2807 80.328C73.2807 82.312 72.9927 84.136 72.4167 85.8C71.8407 87.432 71.0087 88.84 69.9207 90.024C68.8327 91.176 67.5207 92.072 65.9847 92.712C64.4807 93.352 62.7847 93.672 60.8967 93.672C59.0407 93.672 57.3447 93.352 55.8087 92.712C54.3047 92.072 53.0087 91.176 51.9207 90.024C50.8327 88.84 49.9847 87.432 49.3767 85.8C48.7687 84.136 48.4647 82.312 48.4647 80.328C48.4647 78.344 48.7687 76.536 49.3767 74.904C50.0167 73.272 50.8807 71.88 51.9687 70.728C53.0887 69.576 54.4007 68.68 55.9047 68.04C57.4407 67.4 59.1047 67.08 60.8967 67.08C62.7207 67.08 64.3847 67.4 65.8887 68.04C67.4247 68.68 68.7367 69.576 69.8247 70.728C70.9127 71.88 71.7607 73.272 72.3687 74.904C72.9767 76.536 73.2807 78.344 73.2807 80.328ZM65.9847 80.328C65.9847 78.12 65.5367 76.392 64.6407 75.144C63.7767 73.864 62.5287 73.224 60.8967 73.224C59.2647 73.224 58.0007 73.864 57.1047 75.144C56.2087 76.392 55.7607 78.12 55.7607 80.328C55.7607 82.536 56.2087 84.296 57.1047 85.608C58.0007 86.888 59.2647 87.528 60.8967 87.528C62.5287 87.528 63.7767 86.888 64.6407 85.608C65.5367 84.296 65.9847 82.536 65.9847 80.328ZM84.9169 80.184C84.9169 82.392 85.4129 84.168 86.4049 85.512C87.3969 86.856 88.8689 87.528 90.8209 87.528C91.4609 87.528 92.0529 87.512 92.5969 87.48C93.1409 87.416 93.5889 87.352 93.9409 87.288V74.28C93.4929 73.992 92.9009 73.752 92.1649 73.56C91.4609 73.368 90.7409 73.272 90.0049 73.272C86.6129 73.272 84.9169 75.576 84.9169 80.184ZM101.093 92.184C100.453 92.376 99.7169 92.568 98.8849 92.76C98.0529 92.92 97.1729 93.064 96.2449 93.192C95.3489 93.32 94.4209 93.416 93.4609 93.48C92.5329 93.576 91.6369 93.624 90.7729 93.624C88.6929 93.624 86.8369 93.32 85.2049 92.712C83.5729 92.104 82.1969 91.24 81.0769 90.12C79.9569 88.968 79.0929 87.592 78.4849 85.992C77.9089 84.36 77.6209 82.536 77.6209 80.52C77.6209 78.472 77.8769 76.632 78.3889 75C78.9009 73.336 79.6369 71.928 80.5969 70.776C81.5569 69.624 82.7249 68.744 84.1009 68.136C85.5089 67.528 87.1089 67.224 88.9009 67.224C89.8929 67.224 90.7729 67.32 91.5409 67.512C92.3409 67.704 93.1409 67.976 93.9409 68.328V56.904L101.093 55.752V92.184ZM115.038 87.864C116.35 87.864 117.278 87.736 117.822 87.48C118.366 87.224 118.638 86.728 118.638 85.992C118.638 85.416 118.286 84.92 117.582 84.504C116.878 84.056 115.806 83.56 114.366 83.016C113.246 82.6 112.222 82.168 111.294 81.72C110.398 81.272 109.63 80.744 108.99 80.136C108.35 79.496 107.854 78.744 107.502 77.88C107.15 77.016 106.974 75.976 106.974 74.76C106.974 72.392 107.854 70.52 109.614 69.144C111.374 67.768 113.79 67.08 116.862 67.08C118.398 67.08 119.87 67.224 121.278 67.512C122.686 67.768 123.806 68.056 124.638 68.376L123.39 73.944C122.558 73.656 121.646 73.4 120.654 73.176C119.694 72.952 118.606 72.84 117.39 72.84C115.15 72.84 114.03 73.464 114.03 74.712C114.03 75 114.078 75.256 114.174 75.48C114.27 75.704 114.462 75.928 114.75 76.152C115.038 76.344 115.422 76.568 115.902 76.824C116.414 77.048 117.054 77.304 117.822 77.592C119.39 78.168 120.686 78.744 121.71 79.32C122.734 79.864 123.534 80.472 124.11 81.144C124.718 81.784 125.134 82.504 125.358 83.304C125.614 84.104 125.742 85.032 125.742 86.088C125.742 88.584 124.798 90.472 122.91 91.752C121.054 93.032 118.414 93.672 114.99 93.672C112.75 93.672 110.878 93.48 109.374 93.096C107.902 92.712 106.878 92.392 106.302 92.136L107.502 86.328C108.718 86.808 109.966 87.192 111.246 87.48C112.526 87.736 113.79 87.864 115.038 87.864Z" fill="black"/>
</svg>
