<svg width="500" height="494" viewBox="0 0 500 494" fill="none" xmlns="http://www.w3.org/2000/svg">
<path d="M244 224C261.673 224 276 209.673 276 192C276 174.327 261.673 160 244 160C226.327 160 212 174.327 212 192C212 209.673 226.327 224 244 224Z" fill="#0090e3"/>
<path d="M244 32C155.78 32 84 100.65 84 185C84 225.17 102.31 278.59 138.42 343.78C167.42 396.12 200.97 443.45 218.42 467C221.369 471.024 225.224 474.296 229.673 476.552C234.123 478.808 239.041 479.983 244.03 479.983C249.019 479.983 253.937 478.808 258.387 476.552C262.836 474.296 266.691 471.024 269.64 467C287.06 443.45 320.64 396.12 349.64 343.78C385.69 278.61 404 225.19 404 185C404 100.65 332.22 32 244 32ZM244 256C231.342 256 218.968 252.246 208.444 245.214C197.919 238.182 189.716 228.186 184.872 216.492C180.028 204.797 178.76 191.929 181.23 179.514C183.699 167.099 189.795 155.696 198.745 146.745C207.696 137.795 219.099 131.699 231.514 129.23C243.929 126.76 256.797 128.028 268.492 132.872C280.186 137.716 290.182 145.919 297.214 156.444C304.246 166.968 308 179.342 308 192C307.981 208.968 301.233 225.236 289.234 237.234C277.236 249.233 260.968 255.981 244 256Z" fill="#0090e3"/>
</svg>
