<svg width="512" height="478" viewBox="0 0 512 478" fill="none" xmlns="http://www.w3.org/2000/svg">
<path d="M258.9 48C141.92 46.42 46.42 141.92 48 258.9C49.56 371.09 140.91 462.44 253.1 464C370.1 465.6 465.58 370.1 463.98 253.12C462.44 140.91 371.09 49.56 258.9 48ZM351 175.24L268.76 361.76C263.97 372.23 247.98 368.76 247.98 357.2V268C247.98 266.939 247.559 265.922 246.808 265.172C246.058 264.421 245.041 264 243.98 264H154.8C143.28 264 139.8 248.13 150.23 243.33L336.76 161C338.753 160.08 340.98 159.793 343.141 160.178C345.303 160.563 347.294 161.602 348.846 163.154C350.398 164.706 351.437 166.697 351.822 168.859C352.207 171.02 351.92 173.247 351 175.24V175.24Z" fill="#0090E3"/>
</svg>
