<svg width="115" height="115" viewBox="0 0 115 115" fill="none" xmlns="http://www.w3.org/2000/svg">
<g clip-path="url(#clip0_26_3)">
<path d="M57.5001 4.9556e-07C46.1283 0.00293553 35.0127 3.37775 25.5588 9.69771C16.105 16.0177 8.73735 24.999 4.38759 35.506C0.0378237 46.013 -1.09875 57.5739 1.12157 68.7268C3.3419 79.8797 8.81942 90.1239 16.8615 98.1639C24.9036 106.204 35.1492 111.679 46.3027 113.896C57.4562 116.114 69.0168 114.974 79.5226 110.622C90.0285 106.269 99.0079 98.8993 105.325 89.4437C111.643 79.9882 115.015 68.8718 115.015 57.5C115.016 49.9475 113.529 42.4688 110.639 35.4911C107.748 28.5135 103.512 22.1737 98.1705 16.8339C92.8294 11.4942 86.4884 7.25911 79.5101 4.37068C72.5317 1.48226 65.0526 -0.00292388 57.5001 4.9556e-07ZM57.5001 103.884C48.3303 103.881 39.3673 101.16 31.7441 96.0635C24.121 90.9672 18.18 83.7252 14.6722 75.2528C11.1645 66.7805 10.2474 57.4584 12.0371 48.465C13.8267 39.4715 18.2427 31.2106 24.7267 24.7266C31.2107 18.2426 39.4716 13.8267 48.465 12.037C57.4585 10.2474 66.7806 11.1644 75.2529 14.6721C83.7252 18.1799 90.9673 24.1209 96.0636 31.7441C101.16 39.3672 103.882 48.3302 103.884 57.5C103.875 69.7989 98.9846 81.5912 90.2879 90.2879C81.5913 98.9845 69.799 103.875 57.5001 103.884ZM84.8142 69.9439C84.2514 69.4771 83.6021 69.126 82.9033 68.9106C82.2046 68.6953 81.4703 68.6199 80.7423 68.6888C80.0144 68.7577 79.3073 68.9696 78.6614 69.3123C78.0155 69.655 77.4436 70.1218 76.9784 70.6859C74.6018 73.5447 71.6249 75.8451 68.2592 77.424C64.8935 79.0028 61.2214 79.8213 57.5038 79.8213C53.7862 79.8213 50.1141 79.0028 46.7484 77.424C43.3827 75.8451 40.4058 73.5447 38.0292 70.6859C37.5674 70.1074 36.9948 69.6268 36.3449 69.2723C35.695 68.9178 34.981 68.6965 34.2446 68.6214C33.5081 68.5463 32.7641 68.6188 32.0561 68.8348C31.348 69.0508 30.6902 69.4059 30.121 69.8792C29.5519 70.3526 29.0829 70.9347 28.7416 71.5916C28.4002 72.2484 28.1934 72.9668 28.1331 73.7046C28.0728 74.4424 28.1603 75.1848 28.3904 75.8884C28.6206 76.5919 28.9888 77.2425 29.4736 77.802C32.8992 81.909 37.1854 85.2131 42.0291 87.4805C46.8729 89.7479 52.1557 90.9231 57.5038 90.9231C62.8519 90.9231 68.1347 89.7479 72.9784 87.4805C77.8221 85.2131 82.1084 81.909 85.534 77.802C86.0078 77.2396 86.3652 76.5888 86.5857 75.8873C86.8061 75.1858 86.8851 74.4475 86.8182 73.7152C86.7512 72.9829 86.5396 72.2712 86.1956 71.6213C85.8517 70.9714 85.3821 70.3962 84.8142 69.929V69.9439ZM38.9567 53.8047C40.4243 53.8047 41.859 53.3695 43.0792 52.5541C44.2995 51.7388 45.2506 50.5799 45.8122 49.224C46.3738 47.8681 46.5208 46.3761 46.2345 44.9367C45.9481 43.4973 45.2414 42.1752 44.2037 41.1374C43.1659 40.0997 41.8438 39.393 40.4044 39.1066C38.965 38.8203 37.473 38.9673 36.1171 39.5289C34.7612 40.0905 33.6023 41.0416 32.787 42.2619C31.9716 43.4821 31.5364 44.9168 31.5364 46.3844C31.5403 48.3485 32.3228 50.231 33.7124 51.6191C35.1019 53.0073 36.9852 53.7879 38.9493 53.7898L38.9567 53.8047ZM76.0583 39.8916C72.9914 39.7602 69.967 40.6446 67.4541 42.4075C64.9411 44.1705 63.0802 46.7134 62.16 49.6419C62.0675 50.2122 62.1548 50.7971 62.4097 51.3155C62.6647 51.8339 63.0747 52.2602 63.5828 52.535C64.091 52.8099 64.6721 52.9198 65.2455 52.8495C65.8189 52.7791 66.3562 52.5321 66.7829 52.1425L69.009 50.1687C71.0652 48.6772 73.5403 47.874 76.0805 47.874C78.6208 47.874 81.0959 48.6772 83.1521 50.1687L85.3782 52.1425C85.805 52.525 86.3397 52.766 86.9089 52.8323C87.4781 52.8987 88.054 52.7872 88.5573 52.5132C89.0606 52.2392 89.4667 51.816 89.7199 51.3019C89.9731 50.7878 90.061 50.2079 89.9714 49.6419C89.0695 46.7134 87.2217 44.1668 84.7174 42.401C82.2131 40.6353 79.1938 39.7501 76.1325 39.8842L76.0583 39.8916Z" fill="#0090E3"/>
</g>
<defs>
<clipPath id="clip0_26_3">
<rect width="115" height="115" fill="white"/>
</clipPath>
</defs>
</svg>
